<svg width="339" height="774" viewBox="0 0 339 774" fill="none" xmlns="http://www.w3.org/2000/svg">
<g clip-path="url(#clip0_102_488)">
<rect x="170" y="40" width="203" height="72" rx="24" fill="#1E212A"/>
<rect x="-39" y="273" width="292" height="29" rx="14.5" fill="#3166ED"/>
<rect x="-39" y="325" width="170" height="29" rx="14.5" fill="#F50D61"/>
<rect x="146" y="325" width="107" height="29" rx="14.5" fill="#F50D61"/>
<rect x="-39" y="377" width="59" height="29" rx="14.5" fill="#1E212A"/>
<rect x="32" y="377" width="221" height="29" rx="14.5" fill="#3166ED"/>
<rect x="117" y="521" width="292" height="29" rx="14.5" fill="#F50D61"/>
<rect x="-59" y="689" width="292" height="189" rx="24" fill="#3166ED"/>
<rect x="117" y="573" width="170" height="29" rx="14.5" fill="#F50D61"/>
<rect x="302" y="573" width="107" height="29" rx="14.5" fill="#FBFF29"/>
<rect x="117" y="625" width="59" height="29" rx="14.5" fill="#FBFF29"/>
<rect x="188" y="625" width="221" height="29" rx="14.5" fill="#1E212A"/>
<rect width="71" height="72" rx="24" transform="matrix(-1 0 0 1 152 40)" fill="#FBFF29"/>
</g>
<defs>
<clipPath id="clip0_102_488">
<path d="M0 10C0 4.47716 4.47715 0 10 0H329C334.523 0 339 4.47715 339 10V764C339 769.523 334.523 774 329 774H10C4.47715 774 0 769.523 0 764V10Z" fill="white"/>
</clipPath>
</defs>
</svg>
