<svg width="439" height="290" viewBox="0 0 439 290" fill="none" xmlns="http://www.w3.org/2000/svg">
<path d="M186.5 178V224" stroke="#242834" stroke-width="4" stroke-linejoin="round"/>
<path d="M180 178V224" stroke="#242834" stroke-width="4" stroke-linejoin="round"/>
<path d="M173 178V224" stroke="#242834" stroke-width="4" stroke-linejoin="round"/>
<path d="M93.5 229V275" stroke="#242834" stroke-width="4" stroke-linejoin="round"/>
<path d="M87 229V275" stroke="#242834" stroke-width="4" stroke-linejoin="round"/>
<path d="M241.5 232V278" stroke="#242834" stroke-width="4" stroke-linejoin="round"/>
<path d="M235 232V278" stroke="#242834" stroke-width="4" stroke-linejoin="round"/>
<path d="M219 277.5L173 277.5" stroke="#242834" stroke-width="4" stroke-linejoin="round"/>
<path d="M219 271L173 271" stroke="#242834" stroke-width="4" stroke-linejoin="round"/>
<path d="M80 229V275" stroke="#242834" stroke-width="4" stroke-linejoin="round"/>
<rect y="158" width="292" height="34.7368" rx="4" fill="#1D202B"/>
<rect y="206.632" width="292" height="34.7368" rx="4" fill="#1D202B"/>
<rect y="255.263" width="191.422" height="34.7368" rx="4" fill="#1D202B"/>
<rect x="206.717" y="255.263" width="85.2825" height="34.7368" rx="4" fill="#1D202B"/>
<ellipse cx="26.8825" cy="175.6" rx="5.09841" ry="5.09474" fill="#242834"/>
<ellipse cx="44.9587" cy="175.6" rx="5.09841" ry="5.09474" fill="#00FF47"/>
<ellipse cx="63.0349" cy="175.6" rx="5.09841" ry="5.09474" fill="#3166ED"/>
<ellipse cx="27.0984" cy="273.095" rx="5.09841" ry="5.09474" fill="#F50D61"/>
<ellipse cx="45.1746" cy="273.095" rx="5.09841" ry="5.09474" fill="#242834"/>
<ellipse cx="63.2508" cy="273.095" rx="5.09841" ry="5.09474" fill="#3166ED"/>
<ellipse cx="150.175" cy="273.095" rx="5.09841" ry="5.09474" fill="#FBFF29"/>
<ellipse cx="168.251" cy="273.095" rx="5.09841" ry="5.09474" fill="#242834"/>
<ellipse cx="228.038" cy="224.231" rx="5.09841" ry="5.09474" fill="#F50D61"/>
<ellipse cx="246.114" cy="224.231" rx="5.09841" ry="5.09474" fill="#3166ED"/>
<ellipse cx="264.19" cy="224.231" rx="5.09841" ry="5.09474" fill="#242834"/>
<ellipse cx="26.8825" cy="224.231" rx="5.09841" ry="5.09474" fill="#242834"/>
<ellipse cx="44.9587" cy="224.231" rx="5.09841" ry="5.09474" fill="#F50D61"/>
<ellipse cx="108.457" cy="224.231" rx="5.09841" ry="5.09474" fill="#00FF47"/>
<ellipse cx="126.533" cy="224.231" rx="5.09841" ry="5.09474" fill="#242834"/>
<ellipse cx="246.098" cy="273.095" rx="5.09841" ry="5.09474" fill="#F50D61"/>
<ellipse cx="264.175" cy="273.095" rx="5.09841" ry="5.09474" fill="#242834"/>
<ellipse cx="228.098" cy="273.095" rx="5.09841" ry="5.09474" fill="#00FF47"/>
<ellipse cx="264.19" cy="175.6" rx="5.09841" ry="5.09474" fill="#F50D61"/>
<path d="M333.5 20V66" stroke="#3D414F" stroke-width="4" stroke-linejoin="round"/>
<path d="M327 20V66" stroke="#3D414F" stroke-width="4" stroke-linejoin="round"/>
<path d="M320 20V66" stroke="#3D414F" stroke-width="4" stroke-linejoin="round"/>
<path d="M240.5 71V117" stroke="#3D414F" stroke-width="4" stroke-linejoin="round"/>
<path d="M234 71V117" stroke="#3D414F" stroke-width="4" stroke-linejoin="round"/>
<path d="M388.5 74V120" stroke="#3D414F" stroke-width="4" stroke-linejoin="round"/>
<path d="M382 74V120" stroke="#3D414F" stroke-width="4" stroke-linejoin="round"/>
<path d="M366 119.5L320 119.5" stroke="#3D414F" stroke-width="4" stroke-linejoin="round"/>
<path d="M366 113L320 113" stroke="#3D414F" stroke-width="4" stroke-linejoin="round"/>
<path d="M227 71V117" stroke="#3D414F" stroke-width="4" stroke-linejoin="round"/>
<rect x="147" width="292" height="34.7368" rx="4" fill="#333642"/>
<rect x="147" y="48.6316" width="292" height="34.7368" rx="4" fill="#333642"/>
<rect x="147" y="97.2632" width="191.422" height="34.7368" rx="4" fill="#333642"/>
<rect x="353.717" y="97.2632" width="85.2825" height="34.7368" rx="4" fill="#333642"/>
<ellipse cx="173.883" cy="17.6" rx="5.09841" ry="5.09474" fill="#3D414F"/>
<ellipse cx="191.959" cy="17.6" rx="5.09841" ry="5.09474" fill="#00FF47"/>
<ellipse cx="210.035" cy="17.6" rx="5.09841" ry="5.09474" fill="#3166ED"/>
<ellipse cx="174.098" cy="115.095" rx="5.09841" ry="5.09474" fill="#F50D61"/>
<ellipse cx="192.175" cy="115.095" rx="5.09841" ry="5.09474" fill="#3D414F"/>
<ellipse cx="210.251" cy="115.095" rx="5.09841" ry="5.09474" fill="#3166ED"/>
<ellipse cx="297.175" cy="115.095" rx="5.09841" ry="5.09474" fill="#FBFF29"/>
<ellipse cx="315.251" cy="115.095" rx="5.09841" ry="5.09474" fill="#3D414F"/>
<ellipse cx="375.038" cy="66.2316" rx="5.09841" ry="5.09474" fill="#F50D61"/>
<ellipse cx="393.114" cy="66.2316" rx="5.09841" ry="5.09474" fill="#3166ED"/>
<ellipse cx="411.19" cy="66.2316" rx="5.09841" ry="5.09474" fill="#3D414F"/>
<ellipse cx="173.883" cy="66.2316" rx="5.09841" ry="5.09474" fill="#3D414F"/>
<ellipse cx="191.959" cy="66.2316" rx="5.09841" ry="5.09474" fill="#F50D61"/>
<ellipse cx="255.457" cy="66.2316" rx="5.09841" ry="5.09474" fill="#00FF47"/>
<ellipse cx="273.533" cy="66.2316" rx="5.09841" ry="5.09474" fill="#3D414F"/>
<ellipse cx="393.098" cy="115.095" rx="5.09841" ry="5.09474" fill="#F50D61"/>
<ellipse cx="411.175" cy="115.095" rx="5.09841" ry="5.09474" fill="#3D414F"/>
<ellipse cx="375.098" cy="115.095" rx="5.09841" ry="5.09474" fill="#00FF47"/>
<ellipse cx="411.19" cy="17.6" rx="5.09841" ry="5.09474" fill="#F50D61"/>
</svg>
