<svg width="306" height="651" viewBox="0 0 306 651" fill="none" xmlns="http://www.w3.org/2000/svg">
<path d="M305.067 245C305.067 300.781 259.347 346 203.567 346V346C147.786 346 102.067 300.781 102.067 245V245L305.067 245V245Z" fill="#225BEF"/>
<path d="M305.067 448C305.067 391.943 259.624 346 203.567 346V346C147.51 346 102.067 391.943 102.067 448V448L305.067 448V448Z" fill="#F9F9F9"/>
<path d="M102.067 448C46.0098 448 0.0666484 402.557 0.066646 346.5V346.5C0.0666435 290.443 46.0097 245 102.067 245V245L102.067 448V448Z" fill="#FBFF29"/>
<path d="M203.718 -7.94165e-05C243.412 39.6933 243.412 104.049 203.718 143.742V143.742C164.025 183.436 99.6692 183.436 59.9758 143.742V143.742L203.718 -7.94165e-05V-7.94165e-05Z" fill="#F50D60"/>
<path d="M102.067 245H305.067V42L102.067 245Z" fill="#21242E"/>
<path d="M60.1217 143.775L102.839 101.057L60.1217 58.34V143.775Z" fill="#21242E"/>
<path d="M306.067 448C250.01 448 204.067 493.443 204.067 549.5V549.5C204.067 605.557 250.01 651 306.067 651V651L306.067 448V448Z" fill="#F50D60"/>
<path d="M60.1869 58.3562C65.3511 53.192 73.7239 53.192 78.8881 58.3562V58.3562C84.0522 63.5204 84.0522 71.8932 78.8881 77.0574V77.0574L60.1869 58.3562V58.3562Z" fill="#225BEF"/>
</svg>
