<svg width="278" height="279" viewBox="0 0 278 279" fill="none" xmlns="http://www.w3.org/2000/svg">
<path d="M226.998 190.63C255.065 142.016 238.409 79.8528 189.795 51.7854V51.7854C141.181 23.7179 79.0177 40.3744 50.9503 88.9886V88.9886L226.998 190.63V190.63Z" fill="#21242E"/>
<mask id="path-2-inside-1_137_2045" fill="white">
<path d="M50.8206 89.213C22.7532 137.827 39.4096 199.99 88.0239 228.057V228.057C136.638 256.125 198.801 239.468 226.868 190.854V190.854L50.8206 89.213V89.213Z"/>
</mask>
<path d="M16.1796 69.213C-22.9336 136.959 0.277916 223.585 68.0239 262.698C135.77 301.812 222.396 278.6 261.509 210.854L192.227 170.854C175.206 200.337 137.506 210.438 108.024 193.416C78.5413 176.395 68.4399 138.695 85.4616 109.213L16.1796 69.213ZM226.868 190.854L50.8206 89.213L226.868 190.854ZM16.1796 69.213C-22.9336 136.959 0.277916 223.585 68.0239 262.698L108.024 193.416C78.5413 176.395 68.4399 138.695 85.4616 109.213L16.1796 69.213ZM68.0239 262.698C135.77 301.812 222.396 278.6 261.509 210.854L192.227 170.854C175.206 200.337 137.506 210.438 108.024 193.416L68.0239 262.698Z" fill="#3166ED" mask="url(#path-2-inside-1_137_2045)"/>
</svg>
