<svg width="459" height="488" viewBox="0 0 459 488" fill="none" xmlns="http://www.w3.org/2000/svg">
<path d="M82.4526 118.244C85.4949 115.079 88.6433 111.965 91.8655 108.88C144.417 58.5889 210.851 22.2442 283.094 55.7313C320.518 73.1084 338.927 112.483 315.819 149.214C306.034 164.771 291.393 176.673 276.038 186.766C265.458 193.72 253.637 200.871 249.372 212.791C246.298 221.384 247.811 230.836 249.009 239.882C254.539 281.708 246.218 320.854 214.635 350.725C190.713 373.355 154.09 385.719 124.123 367.047C112.959 360.092 104.264 348.834 101.605 335.949C98.6311 321.528 103.172 306.772 106.659 292.463C110.592 276.298 113.553 255.652 100.484 242.632C85.467 227.663 57.9118 240.204 47.9634 220.69C44.53 213.965 43.7873 206.172 43.9286 198.638C44.5228 165.53 60.8882 140.66 82.4526 118.244Z" fill="#3166ED"/>
<path d="M353.625 418.232C348.417 420.034 343.117 421.719 337.753 423.33C250.274 449.569 155.231 452.286 93.559 373.594C61.6282 332.796 63.5204 278.255 110.332 250.37C130.155 238.559 153.324 233.607 176.257 231.086C192.059 229.35 209.36 228.102 220.935 217.206C229.279 209.351 232.983 197.917 236.807 187.118C254.501 137.186 286.155 98.1592 338.528 82.7851C378.198 71.135 426.213 78.2157 449.065 116.205C457.58 130.357 460.876 147.91 456.493 163.837C451.586 181.662 438.084 195.572 426.017 209.582C412.389 225.414 397.291 246.812 404.473 268.834C412.721 294.147 450.696 295.853 450.681 323.356C450.681 332.837 447.062 341.975 442.604 350.319C423.037 387.006 390.538 405.475 353.625 418.232Z" fill="#F50D61"/>
<path d="M254.104 220.809C254.104 220.809 207.488 232.525 218.373 288.943C229.259 345.362 330.647 351.572 333.279 369.623C335.911 387.675 343.057 393.507 343.057 393.507C343.057 393.507 352.835 368.119 351.708 354.954C350.58 341.789 309.018 318.846 306.008 309.445C302.999 300.045 332.373 233.843 332.373 233.843C332.373 233.843 275.894 202.139 254.104 220.809Z" fill="#3D44FF"/>
<path opacity="0.87" d="M344.622 346.681C346.464 349.262 348.145 350.057 349.554 349.589C340.787 336.269 308.665 317.649 306.033 309.446C305.439 307.579 306.114 303.482 307.578 298.118C292.536 288.581 280.786 276.564 288.546 259.418C299.471 235.263 310.824 227.754 309.964 223.431C304.005 221.07 297.901 219.09 291.691 217.503C282.426 216.97 269.689 217.342 257.556 218.439C256.328 219.118 255.171 219.919 254.104 220.83C254.104 220.83 241.321 224.045 230.718 235.192C234.744 237.467 243.878 241.603 254.114 239.173C267.867 235.912 236.082 261.315 252.634 284.434C269.186 307.553 241.724 316.969 275.2 331.634C308.675 346.298 336.565 335.398 344.622 346.681Z" fill="#1B23E1"/>
<path fill-rule="evenodd" clip-rule="evenodd" d="M254.104 220.809C254.104 220.809 207.488 232.525 218.373 288.943C229.259 345.362 330.647 351.572 333.279 369.623C335.911 387.675 343.057 393.507 343.057 393.507C343.057 393.507 352.835 368.119 351.708 354.954C350.58 341.789 309.018 318.846 306.008 309.445C302.999 300.045 332.373 233.843 332.373 233.843C332.373 233.843 275.894 202.139 254.104 220.809V220.809Z" stroke="#141414" stroke-width="1.76"/>
<path d="M289.768 128.338C289.768 128.338 268.245 137.684 265.225 161.049C263.886 171.776 259.968 182.019 253.807 190.902C259 196.06 265.104 204.187 265.638 214.217L266.715 213.643C306.536 192.094 289.768 128.338 289.768 128.338Z" fill="#FBFF29"/>
<path d="M280.831 163.656C281.586 179.956 270.212 198.687 265.336 192.21C259.956 185.064 257.928 189.568 254.637 189.694C254.365 190.107 254.088 190.519 253.807 190.922C258.97 196.05 265.029 204.117 265.623 214.071C265.995 213.96 266.36 213.826 266.715 213.669C267.616 213.165 268.476 212.662 269.317 212.159C280.921 203.669 289.597 174.843 280.831 163.656V163.656Z" fill="#F7E11D"/>
<path fill-rule="evenodd" clip-rule="evenodd" d="M289.768 128.338C289.768 128.338 268.245 137.684 265.225 161.049C263.886 171.776 259.968 182.019 253.807 190.902C259 196.06 265.104 204.187 265.638 214.217L266.715 213.643C306.536 192.094 289.768 128.338 289.768 128.338Z" stroke="#141414" stroke-width="1.76"/>
<path d="M253.807 190.917C243.239 206.055 227.663 214.569 215.263 214.917C212.531 214.917 226.642 234.845 265.638 214.232C265.105 204.203 259 196.075 253.807 190.917V190.917Z" fill="#F4A187"/>
<path opacity="0.61" d="M253.807 190.917C253.646 191.148 253.48 191.375 253.303 191.601C254.869 195.25 260.923 212.546 239.278 220.79C236.563 221.84 233.785 222.719 230.959 223.421C239.072 224.111 250.465 222.224 265.628 214.212C265.105 204.203 259 196.075 253.807 190.917Z" fill="#F9724E"/>
<path fill-rule="evenodd" clip-rule="evenodd" d="M253.807 190.917C243.239 206.055 227.663 214.569 215.263 214.917C212.531 214.917 226.642 234.845 265.638 214.232C265.105 204.203 259 196.075 253.807 190.917V190.917Z" stroke="#141414" stroke-width="1.76"/>
<path d="M344.396 377.857C324.603 324.312 362.829 280.67 362.829 280.67C366.216 231.961 310.925 222.933 297.005 226.043C283.085 229.153 248.11 292.144 275.567 357.591C286.714 384.152 301.947 399.999 316.093 409.823C333.606 401.6 341.592 385.204 344.396 377.857Z" fill="#3166ED"/>
<path opacity="0.4" d="M329.384 230.734C316.239 225.59 302.908 224.725 297.005 226.043C296.302 226.213 295.625 226.475 294.992 226.823C302.893 230.205 335.101 245.871 336.258 277.097C335.84 304.932 300.482 292.275 301.987 317.659C303.492 343.042 350.54 372.059 304.574 400.558C315.097 401.167 337.496 397.393 342.458 372.125C327.27 321.232 362.794 280.67 362.794 280.67C363.205 275.371 362.82 270.039 361.652 264.853C354.42 252.403 342.398 238.997 329.384 230.734Z" fill="#1241BB"/>
<path fill-rule="evenodd" clip-rule="evenodd" d="M344.396 377.857C324.603 324.312 362.829 280.67 362.829 280.67C366.216 231.961 310.925 222.933 297.005 226.043C283.085 229.153 248.11 292.144 275.567 357.591C286.714 384.152 301.947 399.999 316.093 409.823C333.606 401.6 341.592 385.204 344.396 377.857V377.857Z" stroke="#141414" stroke-width="1.76"/>
<path d="M280.458 164.26C289.859 189.085 266.951 221.755 239.273 223.26C286.477 227.588 318.056 212.405 362.814 280.67C368.456 271.456 397.231 236.289 384.117 186.639C372.643 143.199 325.579 105.959 289.753 128.338" fill="#FBFF29"/>
<path d="M295.606 226.526C317.246 230.613 338.009 242.796 362.839 280.665C368.481 271.451 397.256 236.284 384.142 186.634C383.135 182.842 381.875 179.122 380.372 175.497C356.816 155.403 327.532 150.335 328.604 158.141C328.604 158.141 352.432 170.525 339.393 189.08C331.87 197.605 292.41 198.269 302.284 214.916C312.555 222.435 302.727 225.359 295.606 226.526H295.606Z" fill="#F7E11D"/>
<path d="M280.458 164.26C289.859 189.085 266.951 221.755 239.273 223.26C286.477 227.588 318.056 212.405 362.814 280.67C368.456 271.456 397.231 236.289 384.117 186.639C372.643 143.199 325.579 105.959 289.753 128.338" stroke="#141414" stroke-width="1.76"/>
<path d="M265.638 211.681C265.638 211.681 345.991 205.274 371.712 266.856" stroke="#141414" stroke-width="1.76"/>
<path d="M328.594 158.146C341.678 159.494 357.148 169.328 349.035 177.556C357.545 177.475 371.681 180.072 385.772 194.626C399.717 178.276 398.856 155.162 379.366 137.367C339.257 100.751 303.276 122.637 303.276 122.637" fill="#FBFF29"/>
<path opacity="0.83" d="M379.381 137.367C350.545 111.057 323.848 114.952 311.111 119.25C319.394 117.116 331.341 116.356 343.394 123.593C365.21 136.677 347.455 148.252 362.98 151.493C371.978 153.38 378.707 169.106 370.705 183.091C376.317 186.128 381.413 190.034 385.802 194.666C399.732 178.275 398.882 155.161 379.381 137.367Z" fill="#F7E11D"/>
<path d="M328.594 158.146C341.678 159.494 357.148 169.328 349.035 177.556C357.545 177.475 371.681 180.072 385.772 194.626C399.717 178.276 398.856 155.162 379.366 137.367C339.257 100.751 303.276 122.637 303.276 122.637" stroke="#141414" stroke-width="1.76"/>
<path d="M344.869 180.525C315.061 196.417 287.252 189.16 284.716 191.42C282.18 193.68 293.06 195.854 287.695 198.017C282.331 200.181 277.072 203.377 277.917 204.318C278.763 205.259 287.886 202.436 287.886 202.436C287.886 202.436 276.513 209.3 277.353 210.709C278.194 212.118 290.604 205.928 290.604 205.928C290.604 205.928 281.4 213.437 283.277 213.98C285.154 214.524 292.587 208.153 292.587 208.153C292.587 208.153 288.827 211.726 288.827 213.512C291.178 215.299 295.128 209.184 296.507 209.486C339.786 221.599 371.042 211.872 385.787 194.59C371.696 179.996 357.545 177.44 349.051 177.52C347.816 178.727 346.406 179.74 344.869 180.525Z" fill="#F4A187"/>
<path fill-rule="evenodd" clip-rule="evenodd" d="M344.869 180.525C315.061 196.417 287.252 189.16 284.716 191.42C282.18 193.68 293.06 195.854 287.695 198.017C282.331 200.181 277.072 203.377 277.917 204.318C278.763 205.259 287.886 202.436 287.886 202.436C287.886 202.436 276.513 209.3 277.353 210.709C278.194 212.118 290.604 205.928 290.604 205.928C290.604 205.928 281.4 213.437 283.277 213.98C285.154 214.524 292.587 208.153 292.587 208.153C292.587 208.153 288.827 211.726 288.827 213.512C291.178 215.299 295.128 209.184 296.507 209.486C339.786 221.599 371.042 211.872 385.787 194.59C371.696 179.996 357.545 177.44 349.051 177.52C347.816 178.727 346.406 179.74 344.869 180.525V180.525Z" stroke="#141414" stroke-width="1.76"/>
<path d="M272.935 98.8131C272.935 98.8131 271.053 135.298 289.768 128.338C291.646 138.967 297.976 151.191 305.5 150.154C313.023 149.117 310.532 117.805 287.605 91.8532C277.072 84.8028 272.935 98.8131 272.935 98.8131Z" fill="#F4A187" stroke="#141414" stroke-width="1.76"/>
<path d="M280.831 220.774L224.04 212.405L199.587 225.379C199.587 225.379 247.119 227.638 254.104 227.261C261.089 226.884 280.831 220.774 280.831 220.774Z" fill="#282B35" stroke="#141414" stroke-width="1.76"/>
<path d="M273.187 104.329C261.265 112.033 245.604 100.303 246.479 89.1611C247.355 78.0193 267.545 90.4141 270.927 87.0273C274.309 83.6405 262.966 79.6649 264.435 74.1141C265.905 68.5633 284.213 69.4742 292.486 84.7728C295.002 81.5118 304.649 78.6282 301.64 89.8706C300.13 95.4667 297.72 106.669 300.81 111.143C294.494 101.078 292.114 103.705 293.991 106.835C294.63 107.464 297.146 114.988 295.636 114.61C294.127 114.233 285.597 96.3071 273.187 104.329Z" fill="#614E86"/>
<path d="M300.815 111.143C297.725 106.669 300.145 95.4669 301.645 89.8708C304.664 78.6284 295.002 81.5119 292.491 84.773C285.068 71.0596 269.563 68.9057 265.401 72.6247C269.9 72.6247 282.949 73.8325 287.791 86.7155C289.804 93.8615 294.187 86.338 295.692 89.5991C297.196 92.8601 296.643 101.445 291.107 99.8149C285.571 98.1844 274.53 100.821 272.14 104.958C272.497 104.762 272.849 104.555 273.202 104.329C285.597 96.3073 294.126 114.233 295.636 114.61C297.146 114.988 294.63 107.464 294.006 106.835C292.114 103.705 294.499 101.068 300.815 111.143Z" fill="#342157"/>
<path fill-rule="evenodd" clip-rule="evenodd" d="M273.187 104.329C261.265 112.033 245.604 100.303 246.479 89.1611C247.355 78.0193 267.545 90.4141 270.927 87.0273C274.309 83.6405 262.966 79.6649 264.435 74.1141C265.905 68.5633 284.213 69.4742 292.486 84.7728C295.002 81.5118 304.649 78.6282 301.64 89.8706C300.13 95.4667 297.72 106.669 300.81 111.143C294.494 101.078 292.114 103.705 293.991 106.835C294.63 107.464 297.146 114.988 295.636 114.61C294.127 114.233 285.597 96.3071 273.187 104.329Z" stroke="#141414" stroke-width="1.76"/>
<path d="M254.104 225.379C254.104 225.379 214.071 232.339 199.587 225.379C180.031 209.205 167.053 174.048 167.053 174.048C167.053 174.048 220.089 159.378 222.721 161.261C236.827 206.009 254.104 225.379 254.104 225.379Z" fill="#F7F7F7"/>
<path d="M200.357 225.726C200.649 225.847 200.951 225.968 201.263 226.078C209.758 227.085 219.621 227.9 228.72 228.217C237.224 227.71 245.697 226.762 254.104 225.379C254.104 225.379 236.827 206.009 222.721 161.251C221.846 160.627 215.379 161.834 207.146 163.727C210.669 164.139 218.439 166.328 218.585 177.551C218.771 192.094 217.457 197.046 223.849 201.153C230.24 205.259 240.858 220.08 200.357 225.726Z" fill="#E9EDEE"/>
<path fill-rule="evenodd" clip-rule="evenodd" d="M254.104 225.379C254.104 225.379 214.071 232.339 199.587 225.379C180.031 209.205 167.053 174.048 167.053 174.048C167.053 174.048 220.089 159.378 222.721 161.261C236.827 206.009 254.104 225.379 254.104 225.379Z" stroke="#141414" stroke-width="1.76"/>
<path d="M282.079 224.755C243.168 235.424 199.678 229.787 199.678 229.787L199.436 225.847C199.436 225.847 251.623 228.866 281.842 220.814C282.904 222.083 282.013 223.628 282.079 224.755Z" fill="#E9EDEE" stroke="#141414" stroke-width="1.76"/>
<path d="M363.64 410.457C354.475 399.386 348.306 388.425 344.396 377.857C341.592 385.204 333.606 401.6 316.093 409.823C335.649 423.411 353.112 425.499 354.793 428.513C356.473 431.528 364.49 420.723 363.64 410.457Z" fill="#F4A187"/>
<path fill-rule="evenodd" clip-rule="evenodd" d="M363.64 410.457C354.475 399.386 348.306 388.425 344.396 377.857C341.592 385.204 333.606 401.6 316.093 409.823C335.649 423.411 353.112 425.499 354.793 428.513C356.473 431.528 364.49 420.723 363.64 410.457Z" stroke="#141414" stroke-width="1.76"/>
<path opacity="0.61" d="M344.395 377.857C341.653 385.048 333.943 400.895 317.22 409.279C323.883 410.377 334.527 410.739 338.779 403.185C345.08 391.978 361.798 407.181 355.23 428.156C357.072 426.526 364.404 419.445 363.66 410.457C354.475 399.376 348.306 388.425 344.395 377.857Z" fill="#F9724E"/>
<path d="M323.964 251.271C323.964 251.271 317.422 261.049 321.83 268.321C326.238 275.593 336.293 270.953 336.293 270.953" stroke="#141414" stroke-width="1.76" stroke-linecap="round"/>
<path d="M358.995 468.184C362.014 468.184 378.621 427.175 367.343 414.76C366.055 413.326 364.827 411.886 363.64 410.457C364.49 420.723 354.798 428.508 354.798 428.508C354.898 428.669 354.948 428.857 354.939 429.047C354.561 434.693 355.985 468.184 358.995 468.184Z" fill="#301E51"/>
<path d="M367.343 414.774C366.055 413.34 364.827 411.901 363.639 410.472C364.047 415.388 362.034 419.736 359.83 422.932C362.497 424.814 367.791 430.949 364.359 449.005C362.346 455.195 359.04 459.689 357.112 463.181C357.656 466.236 358.29 468.214 359.02 468.214C361.999 468.184 378.626 427.174 367.343 414.774Z" fill="#20123A"/>
<path fill-rule="evenodd" clip-rule="evenodd" d="M358.995 468.184C362.014 468.184 378.621 427.175 367.343 414.76C366.055 413.326 364.827 411.886 363.64 410.457C364.49 420.723 354.798 428.508 354.798 428.508C354.898 428.669 354.948 428.857 354.939 429.047C354.561 434.693 355.985 468.184 358.995 468.184V468.184Z" stroke="#141414" stroke-width="1.76"/>
<path d="M341.109 366.967C341.109 366.967 334.995 392.562 304.609 400.553C301.519 402.531 307.533 411.277 316.093 409.818C324.653 408.358 341.2 392.099 344.395 377.852C345.528 371.32 342.045 365.251 341.109 366.967Z" fill="#3166ED"/>
<path opacity="0.77" d="M341.109 366.967C341.109 366.967 338.996 375.784 331.115 384.681C333.284 385.295 335.181 390.307 331.799 394.162C327.773 398.716 311.78 407.352 307.875 408.041C310.283 409.672 313.227 410.308 316.093 409.818C324.648 408.364 341.2 392.099 344.395 377.852C345.528 371.32 342.045 365.251 341.109 366.967Z" fill="#1241BB"/>
<path fill-rule="evenodd" clip-rule="evenodd" d="M341.109 366.966C341.109 366.966 334.995 392.561 304.609 400.553C301.519 402.53 307.533 411.277 316.093 409.817C324.653 408.358 341.2 392.098 344.396 377.851C345.528 371.319 342.045 365.25 341.109 366.966Z" stroke="#141414" stroke-width="1.76"/>
<path d="M309.304 120.045C309.304 120.045 320.829 147.769 307.795 155.388C294.761 163.007 286.19 129.179 286.19 129.179" stroke="#141414" stroke-width="1.76"/>
<path d="M212.103 209.495C215.374 208.006 215.862 202.048 213.194 196.187C210.525 190.326 205.711 186.782 202.44 188.271C199.169 189.761 198.681 195.719 201.35 201.58C204.018 207.441 208.833 210.985 212.103 209.495Z" fill="white" stroke="#141414" stroke-width="1.76"/>
<path opacity="0.61" d="M385.787 194.626C381.398 189.994 376.302 186.088 370.69 183.051C364.893 193.197 351.355 202.436 325.328 204.862C302.511 204.107 298.298 199.91 290.604 205.893C290.604 205.893 281.389 213.417 283.267 213.981C285.144 214.544 292.577 208.153 292.577 208.153C292.577 208.153 288.817 211.726 288.817 213.513C291.167 215.299 295.118 209.185 296.497 209.487C339.771 221.635 371.042 211.907 385.787 194.626Z" fill="#F9724E"/>
<path d="M350.887 436.313C350.887 436.313 355.814 430.778 360.57 433.867" stroke="#141414" stroke-linecap="round"/>
<path d="M350.887 441.018C350.887 441.018 355.814 435.483 360.57 438.573" stroke="#141414" stroke-linecap="round"/>
<path d="M350.887 445.719C350.887 445.719 355.814 440.183 360.57 443.273" stroke="#141414" stroke-linecap="round"/>
<path d="M355.433 431.31C355.548 430.806 353.888 429.997 351.726 429.503C349.563 429.01 347.717 429.018 347.602 429.522C347.487 430.026 349.147 430.835 351.309 431.328C353.471 431.822 355.317 431.814 355.433 431.31Z" fill="white" stroke="#141414" stroke-linecap="round"/>
<path d="M358.938 429.361C360.539 427.826 361.546 426.278 361.188 425.905C360.831 425.532 359.243 426.475 357.642 428.01C356.042 429.545 355.034 431.092 355.392 431.466C355.75 431.839 357.338 430.896 358.938 429.361Z" fill="white" stroke="#141414" stroke-linecap="round"/>
<path d="M289.768 128.338C289.768 128.338 294.876 125.485 297.146 123.9C297.34 123.768 297.593 123.76 297.794 123.88C297.996 123.999 298.11 124.225 298.087 124.458C297.267 131.187 292.808 138.207 293.986 140.607C292.164 136.909 289.768 128.338 289.768 128.338H289.768Z" fill="#141414" stroke="#141414" stroke-linecap="round"/>
<path d="M276.825 110.599C276.825 110.599 277.142 115.239 276.322 118.812C277.635 120.689 281.208 118.123 281.208 118.123" fill="#F4A187"/>
<path d="M276.825 110.599C276.825 110.599 277.142 115.239 276.322 118.812C277.635 120.689 281.208 118.123 281.208 118.123" stroke="#141414" stroke-linecap="round"/>
<path d="M281.324 121.409C281.117 121.512 280.968 121.703 280.918 121.929C280.868 122.154 280.923 122.391 281.067 122.571C282.254 123.99 284.261 124.407 285.915 123.579C287.569 122.751 288.437 120.894 288.012 119.094C287.958 118.869 287.805 118.681 287.595 118.583C287.385 118.485 287.142 118.488 286.935 118.591C285.571 119.275 282.693 120.719 281.324 121.409Z" fill="#141414" stroke="#141414" stroke-linecap="round"/>
<path d="M283.035 109.858C285.017 109.177 286.416 108.02 286.16 107.274C285.903 106.527 284.089 106.473 282.107 107.154C280.125 107.835 278.726 108.991 278.982 109.738C279.238 110.485 281.053 110.538 283.035 109.858Z" fill="white" stroke="#191919"/>
<path d="M284.676 109.084C284.388 108.266 283.554 107.774 282.699 107.918C281.843 108.062 281.216 108.801 281.213 109.668C281.215 109.866 281.251 110.062 281.319 110.247C281.903 110.164 282.477 110.025 283.035 109.834C283.605 109.64 284.155 109.388 284.676 109.084Z" fill="#191919"/>
<path d="M271.183 113.837C273.165 113.157 274.564 112 274.307 111.254C274.051 110.507 272.236 110.453 270.254 111.134C268.272 111.815 266.873 112.971 267.13 113.718C267.386 114.465 269.201 114.518 271.183 113.837Z" fill="white" stroke="#191919" stroke-width="1.76"/>
<path d="M272.824 113.07C272.537 112.252 271.702 111.76 270.847 111.904C269.992 112.048 269.365 112.787 269.362 113.654C269.364 113.851 269.398 114.046 269.463 114.233C270.046 114.154 270.62 114.021 271.179 113.835C271.751 113.636 272.303 113.38 272.824 113.07Z" fill="#191919"/>
<path d="M253.807 87.0572C253.807 87.0572 248.11 86.6647 248.11 89.8703C248.11 93.076 253.751 98.6267 252.906 95.0537C252.06 91.4807 250.848 89.1255 253.364 89.3167C255.88 89.508 254.874 87.0622 253.807 87.0572Z" fill="white"/>
<path d="M254.959 97.6859C254.959 97.6859 256.011 95.5219 257.42 97.6859C258.829 99.8498 254.874 100.132 254.959 97.6859Z" fill="white"/>
<path d="M267.097 74.5518C267.097 74.5518 265.019 75.5884 267.097 77.5712C269.176 79.554 268.879 75.3972 267.097 74.5518Z" fill="white"/>
<path d="M292.491 194.777C292.491 194.777 303.401 192.386 305.47 194.777C307.538 197.167 297.196 195.28 298.983 197.922C300.769 200.564 291.364 200.851 292.491 194.777Z" fill="white"/>
<path d="M303.276 199.703C303.276 199.703 306.582 198.863 305.746 202.059C304.911 205.254 299.013 201.862 303.276 199.703Z" fill="white"/>
<path d="M175.14 184.194C174.888 183.69 170.253 177.425 173.263 176.106C176.272 174.788 183.041 172.156 183.227 174.038C183.413 175.92 176.046 175.075 177.757 178.789C179.468 182.503 177.812 189.503 175.14 184.194Z" fill="white"/>
<path d="M178.884 188.848C178.884 188.848 180.394 186.332 182.266 190.917C184.138 195.501 177.399 191.334 178.884 188.848Z" fill="white"/>
<path d="M291.927 246.444C291.927 246.444 272.371 268.084 275.189 293.649C278.008 319.213 281.379 267.505 290.131 259.232C298.882 250.959 297.005 239.726 291.927 246.444Z" fill="white"/>
<path d="M277.258 307.186C277.258 307.186 272.729 307.558 273.876 316.778C275.023 325.997 280.458 322.042 277.258 307.186Z" fill="white"/>
<path d="M307.332 403.004C307.332 403.004 316.893 397.413 317.2 400.613C317.507 403.814 307.498 409.495 307.332 403.004Z" fill="white"/>
<path d="M226.108 251.271C226.108 251.271 217.08 263.932 221.78 280.67C226.481 297.408 222.908 263.016 228.363 263.288C233.818 263.56 231.936 240.3 226.108 251.271Z" fill="white"/>
<path d="M228.202 276.156C228.202 276.156 228.951 268.26 233.279 269.951C237.607 271.642 229.49 278.788 228.202 276.156Z" fill="white"/>
<path d="M278.254 330.32C278.254 330.32 278.838 355.342 293.246 376.961" stroke="white"/>
<path d="M224.604 292.894C224.604 292.894 230.245 312.546 250.365 321.715" stroke="white"/>
<path d="M311.111 193.715C311.111 193.715 335.181 191.727 346.469 183.071" stroke="white"/>
<path d="M274.334 84.2393C274.334 84.2393 276.131 90.1624 269.83 90.3486" stroke="white"/>
<path d="M188.682 173.384C188.682 173.384 214.901 164.446 216.743 166.338" stroke="white"/>
<path d="M397.337 208.445C397.337 208.445 401.644 244.643 369.321 289.391" stroke="#141414"/>
<path d="M210.588 297.785C210.588 297.785 217.543 319.601 234.522 330.32" stroke="#141414"/>
<path d="M162.352 171.285C162.352 171.285 167.853 188.813 172.251 194.777" stroke="#141414"/>
<path d="M371.223 409.822C371.223 409.822 378.626 424.376 374.112 437.621" stroke="#141414"/>
<path d="M332.942 487.242C378.865 487.242 416.093 484.959 416.093 482.144C416.093 479.328 378.865 477.046 332.942 477.046C287.019 477.046 249.791 479.328 249.791 482.144C249.791 484.959 287.019 487.242 332.942 487.242Z" fill="#8B909C"/>
</svg>
