<svg width="339" height="774" viewBox="0 0 339 774" fill="none" xmlns="http://www.w3.org/2000/svg">
<path d="M203 -1.52588e-05C203 55.7807 157.281 101 101.5 101V101C45.7192 101 1.13056e-05 55.7808 6.42909e-06 2.48803e-06V2.48803e-06L203 -1.52588e-05V-1.52588e-05Z" fill="#225BEF"/>
<path d="M339 368C282.943 368 237 413.443 237 469.5V469.5C237 525.557 282.943 571 339 571V571L339 368V368Z" fill="#F50D60"/>
<path d="M136 774H339V571L136 774Z" fill="#21242E"/>
<path d="M238 572C181.943 572 136 526.557 136 470.5V470.5C136 414.443 181.943 369 238 369V369L238 572V572Z" fill="#FBFF29"/>
<mask id="path-5-inside-1_137_2057" fill="white">
<path d="M60.8206 228C32.7532 276.614 49.4096 338.777 98.0239 366.845V366.845C146.638 394.912 208.801 378.255 236.868 329.641V329.641L60.8206 228V228Z"/>
</mask>
<path d="M26.1796 208C-12.9336 275.746 10.2779 362.372 78.0239 401.486C145.77 440.599 232.396 417.387 271.509 349.641L202.227 309.641C185.206 339.124 147.506 349.225 118.024 332.204C88.5413 315.182 78.4399 277.483 95.4616 248L26.1796 208ZM236.868 329.641L60.8206 228L236.868 329.641ZM26.1796 208C-12.9336 275.746 10.2779 362.372 78.0239 401.486L118.024 332.204C88.5413 315.182 78.4399 277.483 95.4616 248L26.1796 208ZM78.0239 401.486C145.77 440.599 232.396 417.387 271.509 349.641L202.227 309.641C185.206 339.124 147.506 349.225 118.024 332.204L78.0239 401.486Z" fill="#3166ED" mask="url(#path-5-inside-1_137_2057)"/>
</svg>
