<svg width="338" height="774" viewBox="0 0 338 774" fill="none" xmlns="http://www.w3.org/2000/svg">
<path d="M305 673C305 728.781 259.281 774 203.5 774V774C147.719 774 102 728.781 102 673V673L305 673V673Z" fill="#282B35"/>
<path d="M236 203C292.057 203 338 248.443 338 304.5V304.5C338 360.557 292.057 406 236 406V406L236 203V203Z" fill="#1E212A"/>
<path d="M111 4.45856e-06C54.9431 2.00824e-06 9 45.4431 9 101.5V101.5C8.99999 157.557 54.9431 203 111 203V203L111 4.45856e-06V4.45856e-06Z" fill="#3166ED"/>
<path d="M111 203H338V-24L111 203Z" fill="#282B35"/>
<path d="M102 774C45.9431 774 -1.98638e-06 728.557 -4.43671e-06 672.5V672.5C-6.88703e-06 616.443 45.9431 571 102 571V571L102 774V774Z" fill="#282B35"/>
<mask id="path-6-inside-1_137_2046" fill="white">
<path d="M128.821 520C100.753 568.614 117.41 630.777 166.024 658.845V658.845C214.638 686.912 276.801 670.255 304.868 621.641V621.641L128.821 520V520Z"/>
</mask>
<path d="M94.1796 500C55.0664 567.746 78.2779 654.372 146.024 693.486C213.77 732.599 300.396 709.387 339.509 641.641L270.227 601.641C253.206 631.124 215.506 641.225 186.024 624.204C156.541 607.182 146.44 569.483 163.462 540L94.1796 500ZM304.868 621.641L128.821 520L304.868 621.641ZM94.1796 500C55.0664 567.746 78.2779 654.372 146.024 693.486L186.024 624.204C156.541 607.182 146.44 569.483 163.462 540L94.1796 500ZM146.024 693.486C213.77 732.599 300.396 709.387 339.509 641.641L270.227 601.641C253.206 631.124 215.506 641.225 186.024 624.204L146.024 693.486Z" fill="#1E212A" mask="url(#path-6-inside-1_137_2046)"/>
</svg>
